<mxfile host="app.diagrams.net" modified="2020-09-02T11:06:01.391Z" agent="5.0 (Macintosh; Intel Mac OS X 10_15_6) AppleWebKit/537.36 (KHTML, like Gecko) Chrome/84.0.4147.135 Safari/537.36" etag="7fwLYv7PQQMUt8e6nhqD" version="13.6.5" type="github" pages="7">
  <diagram id="6g13zmwLoHxmv2ATgvaI" name="Quản lý khóa luận">
    <mxGraphModel dx="1390" dy="890" grid="1" gridSize="10" guides="1" tooltips="1" connect="1" arrows="1" fold="1" page="1" pageScale="1" pageWidth="827" pageHeight="1169" math="0" shadow="0">
      <root>
        <mxCell id="0" />
        <mxCell id="1" parent="0" />
        <mxCell id="TkqLjr7JOWsiIgdo_Hpn-1" value="Hệ thống quản lý khóa luận" style="whiteSpace=wrap;html=1;labelPosition=center;verticalLabelPosition=top;align=center;verticalAlign=bottom;fontStyle=1" parent="1" vertex="1">
          <mxGeometry x="40" y="80" width="760" height="880" as="geometry" />
        </mxCell>
        <mxCell id="9_4x8XHPMdaL2qt-cW8d-25" style="edgeStyle=none;rounded=0;orthogonalLoop=1;jettySize=auto;html=1;exitX=0.5;exitY=0.5;exitDx=0;exitDy=0;exitPerimeter=0;entryX=0;entryY=0.5;entryDx=0;entryDy=0;endArrow=none;endFill=0;" parent="1" source="9_4x8XHPMdaL2qt-cW8d-30" target="9_4x8XHPMdaL2qt-cW8d-31" edge="1">
          <mxGeometry relative="1" as="geometry" />
        </mxCell>
        <mxCell id="9_4x8XHPMdaL2qt-cW8d-26" style="edgeStyle=none;rounded=0;orthogonalLoop=1;jettySize=auto;html=1;exitX=0.5;exitY=0.5;exitDx=0;exitDy=0;exitPerimeter=0;entryX=0;entryY=0.5;entryDx=0;entryDy=0;endArrow=none;endFill=0;" parent="1" source="9_4x8XHPMdaL2qt-cW8d-30" target="9_4x8XHPMdaL2qt-cW8d-32" edge="1">
          <mxGeometry relative="1" as="geometry">
            <mxPoint x="80" y="660" as="sourcePoint" />
          </mxGeometry>
        </mxCell>
        <mxCell id="9_4x8XHPMdaL2qt-cW8d-27" style="edgeStyle=none;rounded=0;orthogonalLoop=1;jettySize=auto;html=1;exitX=0.5;exitY=0.5;exitDx=0;exitDy=0;exitPerimeter=0;entryX=0;entryY=0.5;entryDx=0;entryDy=0;endArrow=none;endFill=0;" parent="1" source="9_4x8XHPMdaL2qt-cW8d-30" target="9_4x8XHPMdaL2qt-cW8d-33" edge="1">
          <mxGeometry relative="1" as="geometry">
            <mxPoint x="80" y="660" as="sourcePoint" />
          </mxGeometry>
        </mxCell>
        <mxCell id="9_4x8XHPMdaL2qt-cW8d-28" style="edgeStyle=none;rounded=0;orthogonalLoop=1;jettySize=auto;html=1;exitX=0.5;exitY=0.5;exitDx=0;exitDy=0;exitPerimeter=0;entryX=0;entryY=0.5;entryDx=0;entryDy=0;endArrow=none;endFill=0;" parent="1" source="9_4x8XHPMdaL2qt-cW8d-30" target="9_4x8XHPMdaL2qt-cW8d-35" edge="1">
          <mxGeometry relative="1" as="geometry" />
        </mxCell>
        <mxCell id="9_4x8XHPMdaL2qt-cW8d-29" style="edgeStyle=none;rounded=0;orthogonalLoop=1;jettySize=auto;html=1;exitX=0.5;exitY=0.5;exitDx=0;exitDy=0;exitPerimeter=0;entryX=0;entryY=0.5;entryDx=0;entryDy=0;endArrow=none;endFill=0;" parent="1" source="9_4x8XHPMdaL2qt-cW8d-30" target="9_4x8XHPMdaL2qt-cW8d-37" edge="1">
          <mxGeometry relative="1" as="geometry">
            <mxPoint x="80" y="660" as="sourcePoint" />
          </mxGeometry>
        </mxCell>
        <mxCell id="9_4x8XHPMdaL2qt-cW8d-30" value="Trưởng ngành" style="shape=umlActor;verticalLabelPosition=bottom;verticalAlign=top;html=1;outlineConnect=0;" parent="1" vertex="1">
          <mxGeometry x="80" y="480" width="40" height="80" as="geometry" />
        </mxCell>
        <mxCell id="9_4x8XHPMdaL2qt-cW8d-31" value="1.3. Tạo khóa luận" style="ellipse;whiteSpace=wrap;html=1;" parent="1" vertex="1">
          <mxGeometry x="360" y="360" width="120" height="80" as="geometry" />
        </mxCell>
        <mxCell id="ErI2OAX9DcEwasMn0mhf-1" value="&amp;lt;&amp;lt; include &amp;gt;&amp;gt;" style="edgeStyle=orthogonalEdgeStyle;rounded=0;orthogonalLoop=1;jettySize=auto;html=1;exitX=0.5;exitY=1;exitDx=0;exitDy=0;entryX=0.5;entryY=0;entryDx=0;entryDy=0;dashed=1;startArrow=none;startFill=0;endArrow=classic;endFill=1;" parent="1" source="9_4x8XHPMdaL2qt-cW8d-32" target="9_4x8XHPMdaL2qt-cW8d-33" edge="1">
          <mxGeometry relative="1" as="geometry" />
        </mxCell>
        <mxCell id="9_4x8XHPMdaL2qt-cW8d-32" value="1.6. Kích hoạt &lt;br&gt;khóa luận" style="ellipse;whiteSpace=wrap;html=1;" parent="1" vertex="1">
          <mxGeometry x="360" y="720" width="120" height="80" as="geometry" />
        </mxCell>
        <mxCell id="9_4x8XHPMdaL2qt-cW8d-33" value="1.7. Hủy kích hoạt&lt;br&gt;khóa luận" style="ellipse;whiteSpace=wrap;html=1;" parent="1" vertex="1">
          <mxGeometry x="360" y="860" width="120" height="80" as="geometry" />
        </mxCell>
        <mxCell id="9_4x8XHPMdaL2qt-cW8d-35" value="1.4. Sửa khóa luận" style="ellipse;whiteSpace=wrap;html=1;" parent="1" vertex="1">
          <mxGeometry x="360" y="480" width="120" height="80" as="geometry" />
        </mxCell>
        <mxCell id="9_4x8XHPMdaL2qt-cW8d-37" value="1.5. Xóa khóa luận" style="ellipse;whiteSpace=wrap;html=1;" parent="1" vertex="1">
          <mxGeometry x="360" y="600" width="120" height="80" as="geometry" />
        </mxCell>
        <mxCell id="9_4x8XHPMdaL2qt-cW8d-38" style="edgeStyle=none;rounded=0;orthogonalLoop=1;jettySize=auto;html=1;exitX=0;exitY=0.5;exitDx=0;exitDy=0;entryX=0.5;entryY=0.5;entryDx=0;entryDy=0;entryPerimeter=0;endArrow=none;endFill=0;" parent="1" source="9_4x8XHPMdaL2qt-cW8d-39" target="9_4x8XHPMdaL2qt-cW8d-30" edge="1">
          <mxGeometry relative="1" as="geometry" />
        </mxCell>
        <mxCell id="9_4x8XHPMdaL2qt-cW8d-39" value="1.2. Xem thông tin &lt;br&gt;chi tiết khóa luận" style="ellipse;whiteSpace=wrap;html=1;" parent="1" vertex="1">
          <mxGeometry x="360" y="240" width="120" height="80" as="geometry" />
        </mxCell>
        <mxCell id="9_4x8XHPMdaL2qt-cW8d-40" style="edgeStyle=none;rounded=0;orthogonalLoop=1;jettySize=auto;html=1;exitX=1;exitY=0.5;exitDx=0;exitDy=0;entryX=0.5;entryY=0.5;entryDx=0;entryDy=0;entryPerimeter=0;endArrow=none;endFill=0;" parent="1" source="9_4x8XHPMdaL2qt-cW8d-42" target="9_4x8XHPMdaL2qt-cW8d-45" edge="1">
          <mxGeometry relative="1" as="geometry" />
        </mxCell>
        <mxCell id="9_4x8XHPMdaL2qt-cW8d-41" style="edgeStyle=none;rounded=0;orthogonalLoop=1;jettySize=auto;html=1;exitX=1;exitY=1;exitDx=0;exitDy=0;entryX=0.5;entryY=0.5;entryDx=0;entryDy=0;entryPerimeter=0;endArrow=none;endFill=0;" parent="1" source="9_4x8XHPMdaL2qt-cW8d-42" target="9_4x8XHPMdaL2qt-cW8d-47" edge="1">
          <mxGeometry relative="1" as="geometry" />
        </mxCell>
        <mxCell id="9_4x8XHPMdaL2qt-cW8d-42" value="1.1. Xem tất cả&lt;br&gt;khóa luận" style="ellipse;whiteSpace=wrap;html=1;" parent="1" vertex="1">
          <mxGeometry x="360" y="120" width="120" height="80" as="geometry" />
        </mxCell>
        <mxCell id="9_4x8XHPMdaL2qt-cW8d-43" style="edgeStyle=none;rounded=0;orthogonalLoop=1;jettySize=auto;html=1;exitX=0.5;exitY=0.5;exitDx=0;exitDy=0;exitPerimeter=0;entryX=0;entryY=0.5;entryDx=0;entryDy=0;endArrow=none;endFill=0;" parent="1" source="9_4x8XHPMdaL2qt-cW8d-30" target="9_4x8XHPMdaL2qt-cW8d-42" edge="1">
          <mxGeometry relative="1" as="geometry">
            <mxPoint x="90" y="550" as="sourcePoint" />
            <mxPoint x="247.57359312880726" y="338.2842712474619" as="targetPoint" />
          </mxGeometry>
        </mxCell>
        <mxCell id="9_4x8XHPMdaL2qt-cW8d-44" style="edgeStyle=none;rounded=0;orthogonalLoop=1;jettySize=auto;html=1;exitX=0.5;exitY=0.5;exitDx=0;exitDy=0;exitPerimeter=0;entryX=1;entryY=0;entryDx=0;entryDy=0;endArrow=none;endFill=0;" parent="1" source="9_4x8XHPMdaL2qt-cW8d-45" target="9_4x8XHPMdaL2qt-cW8d-39" edge="1">
          <mxGeometry relative="1" as="geometry" />
        </mxCell>
        <mxCell id="9_4x8XHPMdaL2qt-cW8d-45" value="Sinh viên" style="shape=umlActor;verticalLabelPosition=bottom;verticalAlign=top;html=1;outlineConnect=0;" parent="1" vertex="1">
          <mxGeometry x="720" y="120" width="40" height="80" as="geometry" />
        </mxCell>
        <mxCell id="9_4x8XHPMdaL2qt-cW8d-46" style="edgeStyle=none;rounded=0;orthogonalLoop=1;jettySize=auto;html=1;exitX=0.5;exitY=0.5;exitDx=0;exitDy=0;exitPerimeter=0;entryX=1;entryY=1;entryDx=0;entryDy=0;endArrow=none;endFill=0;" parent="1" source="9_4x8XHPMdaL2qt-cW8d-47" target="9_4x8XHPMdaL2qt-cW8d-39" edge="1">
          <mxGeometry relative="1" as="geometry" />
        </mxCell>
        <mxCell id="9_4x8XHPMdaL2qt-cW8d-47" value="Giảng viên&lt;br&gt;hướng dẫn" style="shape=umlActor;verticalLabelPosition=bottom;verticalAlign=top;html=1;outlineConnect=0;" parent="1" vertex="1">
          <mxGeometry x="720" y="360" width="40" height="80" as="geometry" />
        </mxCell>
      </root>
    </mxGraphModel>
  </diagram>
  <diagram id="fKVBS0v7rQdq2l-n__wK" name="Quản lý đề tài">
    <mxGraphModel dx="1426" dy="890" grid="1" gridSize="10" guides="1" tooltips="1" connect="1" arrows="1" fold="1" page="1" pageScale="1" pageWidth="827" pageHeight="1169" math="0" shadow="0">
      <root>
        <mxCell id="zJX7BsomN9FsBj9HWqxF-0" />
        <mxCell id="zJX7BsomN9FsBj9HWqxF-1" parent="zJX7BsomN9FsBj9HWqxF-0" />
        <mxCell id="Y4XyiP5oSNbCvH2cT-Id-0" value="Quản lý đề tài" style="whiteSpace=wrap;html=1;align=center;labelPosition=center;verticalLabelPosition=top;verticalAlign=bottom;fontStyle=1" parent="zJX7BsomN9FsBj9HWqxF-1" vertex="1">
          <mxGeometry x="40" y="80" width="760" height="960" as="geometry" />
        </mxCell>
        <mxCell id="mGd0udRKIr9mRORxX68n-1" style="edgeStyle=none;rounded=0;orthogonalLoop=1;jettySize=auto;html=1;exitX=0.5;exitY=0.5;exitDx=0;exitDy=0;exitPerimeter=0;entryX=0;entryY=0.5;entryDx=0;entryDy=0;startArrow=none;startFill=0;endArrow=none;endFill=0;" parent="zJX7BsomN9FsBj9HWqxF-1" source="eq-mHdRwkM_4HzkmLxEw-1" target="mGd0udRKIr9mRORxX68n-0" edge="1">
          <mxGeometry relative="1" as="geometry" />
        </mxCell>
        <mxCell id="eq-mHdRwkM_4HzkmLxEw-1" value="Giảng viên&lt;br&gt;hướng dẫn" style="shape=umlActor;verticalLabelPosition=bottom;verticalAlign=top;html=1;outlineConnect=0;" parent="zJX7BsomN9FsBj9HWqxF-1" vertex="1">
          <mxGeometry x="80" y="520" width="40" height="80" as="geometry" />
        </mxCell>
        <mxCell id="ipEJNSV8DNaJJ4FtaMs--3" style="edgeStyle=none;rounded=0;orthogonalLoop=1;jettySize=auto;html=1;exitX=0.5;exitY=0.5;exitDx=0;exitDy=0;exitPerimeter=0;entryX=0;entryY=0.5;entryDx=0;entryDy=0;endArrow=none;endFill=0;" parent="zJX7BsomN9FsBj9HWqxF-1" source="eq-mHdRwkM_4HzkmLxEw-1" target="eq-mHdRwkM_4HzkmLxEw-3" edge="1">
          <mxGeometry relative="1" as="geometry" />
        </mxCell>
        <mxCell id="ipEJNSV8DNaJJ4FtaMs--2" style="edgeStyle=none;rounded=0;orthogonalLoop=1;jettySize=auto;html=1;exitX=0.5;exitY=0.5;exitDx=0;exitDy=0;exitPerimeter=0;entryX=0;entryY=0.5;entryDx=0;entryDy=0;endArrow=none;endFill=0;" parent="zJX7BsomN9FsBj9HWqxF-1" source="eq-mHdRwkM_4HzkmLxEw-1" target="eq-mHdRwkM_4HzkmLxEw-6" edge="1">
          <mxGeometry relative="1" as="geometry" />
        </mxCell>
        <mxCell id="ipEJNSV8DNaJJ4FtaMs--5" style="edgeStyle=none;rounded=0;orthogonalLoop=1;jettySize=auto;html=1;exitX=0.5;exitY=0.5;exitDx=0;exitDy=0;exitPerimeter=0;entryX=0;entryY=0.5;entryDx=0;entryDy=0;endArrow=none;endFill=0;" parent="zJX7BsomN9FsBj9HWqxF-1" source="eq-mHdRwkM_4HzkmLxEw-1" target="70juuajtb2IksFPm51Cw-0" edge="1">
          <mxGeometry relative="1" as="geometry" />
        </mxCell>
        <mxCell id="ipEJNSV8DNaJJ4FtaMs--6" style="edgeStyle=none;rounded=0;orthogonalLoop=1;jettySize=auto;html=1;exitX=0.5;exitY=0.5;exitDx=0;exitDy=0;exitPerimeter=0;entryX=0;entryY=0.5;entryDx=0;entryDy=0;endArrow=none;endFill=0;" parent="zJX7BsomN9FsBj9HWqxF-1" source="eq-mHdRwkM_4HzkmLxEw-1" target="70juuajtb2IksFPm51Cw-1" edge="1">
          <mxGeometry relative="1" as="geometry" />
        </mxCell>
        <mxCell id="ipEJNSV8DNaJJ4FtaMs--4" style="edgeStyle=none;rounded=0;orthogonalLoop=1;jettySize=auto;html=1;exitX=0.5;exitY=0.5;exitDx=0;exitDy=0;exitPerimeter=0;entryX=0;entryY=0.5;entryDx=0;entryDy=0;endArrow=none;endFill=0;" parent="zJX7BsomN9FsBj9HWqxF-1" source="eq-mHdRwkM_4HzkmLxEw-1" target="70juuajtb2IksFPm51Cw-2" edge="1">
          <mxGeometry relative="1" as="geometry" />
        </mxCell>
        <mxCell id="ZAOXv6Gqu5wKepoflgSS-1" style="edgeStyle=none;rounded=0;orthogonalLoop=1;jettySize=auto;html=1;exitX=0.5;exitY=0.5;exitDx=0;exitDy=0;exitPerimeter=0;entryX=0;entryY=0.5;entryDx=0;entryDy=0;endArrow=none;endFill=0;" parent="zJX7BsomN9FsBj9HWqxF-1" source="eq-mHdRwkM_4HzkmLxEw-1" target="ipEJNSV8DNaJJ4FtaMs--0" edge="1">
          <mxGeometry relative="1" as="geometry" />
        </mxCell>
        <mxCell id="mGd0udRKIr9mRORxX68n-0" value="2.7. Thu hồi yêu cầu phê duyệt đề tài" style="ellipse;whiteSpace=wrap;html=1;" parent="zJX7BsomN9FsBj9HWqxF-1" vertex="1">
          <mxGeometry x="240" y="880" width="120" height="80" as="geometry" />
        </mxCell>
        <mxCell id="eq-mHdRwkM_4HzkmLxEw-0" value="Trưởng&lt;br&gt;ngành" style="shape=umlActor;verticalLabelPosition=bottom;verticalAlign=top;html=1;outlineConnect=0;" parent="zJX7BsomN9FsBj9HWqxF-1" vertex="1">
          <mxGeometry x="720" y="440" width="40" height="80" as="geometry" />
        </mxCell>
        <mxCell id="ipEJNSV8DNaJJ4FtaMs--7" style="edgeStyle=none;rounded=0;orthogonalLoop=1;jettySize=auto;html=1;exitX=1;exitY=0;exitDx=0;exitDy=0;entryX=0.5;entryY=0.5;entryDx=0;entryDy=0;entryPerimeter=0;endArrow=none;endFill=0;" parent="zJX7BsomN9FsBj9HWqxF-1" source="eq-mHdRwkM_4HzkmLxEw-4" target="eq-mHdRwkM_4HzkmLxEw-0" edge="1">
          <mxGeometry relative="1" as="geometry" />
        </mxCell>
        <mxCell id="eq-mHdRwkM_4HzkmLxEw-4" value="2.10. Trả lại yêu cầu phê duyệt đề tài" style="ellipse;whiteSpace=wrap;html=1;" parent="zJX7BsomN9FsBj9HWqxF-1" vertex="1">
          <mxGeometry x="520" y="920" width="120" height="80" as="geometry" />
        </mxCell>
        <mxCell id="ipEJNSV8DNaJJ4FtaMs--8" style="edgeStyle=none;rounded=0;orthogonalLoop=1;jettySize=auto;html=1;exitX=1;exitY=0;exitDx=0;exitDy=0;endArrow=none;endFill=0;entryX=0.5;entryY=0.5;entryDx=0;entryDy=0;entryPerimeter=0;" parent="zJX7BsomN9FsBj9HWqxF-1" source="eq-mHdRwkM_4HzkmLxEw-5" target="eq-mHdRwkM_4HzkmLxEw-0" edge="1">
          <mxGeometry relative="1" as="geometry">
            <mxPoint x="740" y="360" as="targetPoint" />
          </mxGeometry>
        </mxCell>
        <mxCell id="eq-mHdRwkM_4HzkmLxEw-5" value="2.9. Từ chối yêu cầu phê duyệt đề tài" style="ellipse;whiteSpace=wrap;html=1;" parent="zJX7BsomN9FsBj9HWqxF-1" vertex="1">
          <mxGeometry x="520" y="800" width="120" height="80" as="geometry" />
        </mxCell>
        <mxCell id="eq-mHdRwkM_4HzkmLxEw-6" value="2.2. Xem tất cả &lt;br&gt;đề tài" style="ellipse;whiteSpace=wrap;html=1;" parent="zJX7BsomN9FsBj9HWqxF-1" vertex="1">
          <mxGeometry x="280" y="280" width="120" height="80" as="geometry" />
        </mxCell>
        <mxCell id="ipEJNSV8DNaJJ4FtaMs--10" style="edgeStyle=none;rounded=0;orthogonalLoop=1;jettySize=auto;html=1;exitX=0.5;exitY=0.5;exitDx=0;exitDy=0;exitPerimeter=0;entryX=1;entryY=1;entryDx=0;entryDy=0;endArrow=none;endFill=0;" parent="zJX7BsomN9FsBj9HWqxF-1" source="eq-mHdRwkM_4HzkmLxEw-0" target="eq-mHdRwkM_4HzkmLxEw-6" edge="1">
          <mxGeometry relative="1" as="geometry" />
        </mxCell>
        <mxCell id="70juuajtb2IksFPm51Cw-1" value="2.5. Xóa đề tài" style="ellipse;whiteSpace=wrap;html=1;" parent="zJX7BsomN9FsBj9HWqxF-1" vertex="1">
          <mxGeometry x="240" y="640" width="120" height="80" as="geometry" />
        </mxCell>
        <mxCell id="ipEJNSV8DNaJJ4FtaMs--11" style="edgeStyle=none;rounded=0;orthogonalLoop=1;jettySize=auto;html=1;exitX=1;exitY=1;exitDx=0;exitDy=0;entryX=0.5;entryY=0.5;entryDx=0;entryDy=0;entryPerimeter=0;endArrow=none;endFill=0;" parent="zJX7BsomN9FsBj9HWqxF-1" source="70juuajtb2IksFPm51Cw-2" target="eq-mHdRwkM_4HzkmLxEw-0" edge="1">
          <mxGeometry relative="1" as="geometry" />
        </mxCell>
        <mxCell id="70juuajtb2IksFPm51Cw-2" value="2.1. Xem thông tin&lt;br&gt;chi tiết đề tài" style="ellipse;whiteSpace=wrap;html=1;" parent="zJX7BsomN9FsBj9HWqxF-1" vertex="1">
          <mxGeometry x="280" y="160" width="120" height="80" as="geometry" />
        </mxCell>
        <mxCell id="ipEJNSV8DNaJJ4FtaMs--0" value="2.6. Gửi yêu cầu phê duyệt đề tài" style="ellipse;whiteSpace=wrap;html=1;" parent="zJX7BsomN9FsBj9HWqxF-1" vertex="1">
          <mxGeometry x="240" y="760" width="120" height="80" as="geometry" />
        </mxCell>
        <mxCell id="ipEJNSV8DNaJJ4FtaMs--9" style="edgeStyle=none;rounded=0;orthogonalLoop=1;jettySize=auto;html=1;exitX=1;exitY=0;exitDx=0;exitDy=0;endArrow=none;endFill=0;entryX=0.5;entryY=0.5;entryDx=0;entryDy=0;entryPerimeter=0;" parent="zJX7BsomN9FsBj9HWqxF-1" source="ipEJNSV8DNaJJ4FtaMs--1" target="eq-mHdRwkM_4HzkmLxEw-0" edge="1">
          <mxGeometry relative="1" as="geometry">
            <mxPoint x="740" y="360" as="targetPoint" />
          </mxGeometry>
        </mxCell>
        <mxCell id="ipEJNSV8DNaJJ4FtaMs--1" value="2.8. Chấp nhận&lt;br&gt;yêu cầu &lt;br&gt;phê duyệt đề tài" style="ellipse;whiteSpace=wrap;html=1;" parent="zJX7BsomN9FsBj9HWqxF-1" vertex="1">
          <mxGeometry x="520" y="680" width="120" height="80" as="geometry" />
        </mxCell>
        <mxCell id="mGd0udRKIr9mRORxX68n-31" style="edgeStyle=none;rounded=0;orthogonalLoop=1;jettySize=auto;html=1;exitX=0.5;exitY=0.5;exitDx=0;exitDy=0;exitPerimeter=0;entryX=1;entryY=0.5;entryDx=0;entryDy=0;startArrow=none;startFill=0;endArrow=none;endFill=0;" parent="zJX7BsomN9FsBj9HWqxF-1" source="mGd0udRKIr9mRORxX68n-3" target="70juuajtb2IksFPm51Cw-2" edge="1">
          <mxGeometry relative="1" as="geometry" />
        </mxCell>
        <mxCell id="mGd0udRKIr9mRORxX68n-32" style="edgeStyle=none;rounded=0;orthogonalLoop=1;jettySize=auto;html=1;exitX=0.5;exitY=0.5;exitDx=0;exitDy=0;exitPerimeter=0;entryX=1;entryY=0;entryDx=0;entryDy=0;startArrow=none;startFill=0;endArrow=none;endFill=0;" parent="zJX7BsomN9FsBj9HWqxF-1" source="mGd0udRKIr9mRORxX68n-3" target="eq-mHdRwkM_4HzkmLxEw-6" edge="1">
          <mxGeometry relative="1" as="geometry" />
        </mxCell>
        <mxCell id="mGd0udRKIr9mRORxX68n-3" value="Sinh viên" style="shape=umlActor;verticalLabelPosition=bottom;verticalAlign=top;html=1;outlineConnect=0;" parent="zJX7BsomN9FsBj9HWqxF-1" vertex="1">
          <mxGeometry x="720" y="200" width="40" height="80" as="geometry" />
        </mxCell>
        <mxCell id="eq-mHdRwkM_4HzkmLxEw-3" value="2.3. Tạo đề tài&lt;br&gt;-------------------------&lt;br&gt;&lt;b&gt;extension point&lt;br&gt;&lt;/b&gt;&lt;i&gt;Chuyển tiếp đề tài&lt;/i&gt;" style="ellipse;whiteSpace=wrap;html=1;" parent="zJX7BsomN9FsBj9HWqxF-1" vertex="1">
          <mxGeometry x="240" y="400" width="160" height="80" as="geometry" />
        </mxCell>
        <mxCell id="70juuajtb2IksFPm51Cw-0" value="2.4. Sửa đề tài&lt;br&gt;-------------------------&lt;br&gt;&lt;b&gt;extension point&lt;br&gt;&lt;/b&gt;&lt;i&gt;Chuyển tiếp đề tài&lt;/i&gt;" style="ellipse;whiteSpace=wrap;html=1;" parent="zJX7BsomN9FsBj9HWqxF-1" vertex="1">
          <mxGeometry x="240" y="520" width="160" height="80" as="geometry" />
        </mxCell>
        <mxCell id="ZAOXv6Gqu5wKepoflgSS-0" value="Chọn sinh viên&lt;br&gt;thực hiện" style="ellipse;whiteSpace=wrap;html=1;" parent="zJX7BsomN9FsBj9HWqxF-1" vertex="1">
          <mxGeometry x="520" y="460" width="120" height="80" as="geometry" />
        </mxCell>
        <mxCell id="ZAOXv6Gqu5wKepoflgSS-2" value="&amp;lt;&amp;lt; extend &amp;gt;&amp;gt;" style="edgeStyle=none;rounded=0;orthogonalLoop=1;jettySize=auto;html=1;exitX=1;exitY=0.5;exitDx=0;exitDy=0;entryX=0;entryY=0.5;entryDx=0;entryDy=0;endArrow=none;endFill=0;dashed=1;startArrow=classic;startFill=1;" parent="zJX7BsomN9FsBj9HWqxF-1" source="eq-mHdRwkM_4HzkmLxEw-3" target="ZAOXv6Gqu5wKepoflgSS-0" edge="1">
          <mxGeometry relative="1" as="geometry" />
        </mxCell>
        <mxCell id="ZAOXv6Gqu5wKepoflgSS-3" value="&amp;lt;&amp;lt; extend &amp;gt;&amp;gt;" style="edgeStyle=none;rounded=0;orthogonalLoop=1;jettySize=auto;html=1;exitX=1;exitY=0.5;exitDx=0;exitDy=0;entryX=0;entryY=0.5;entryDx=0;entryDy=0;endArrow=none;endFill=0;startArrow=classic;startFill=1;dashed=1;" parent="zJX7BsomN9FsBj9HWqxF-1" source="70juuajtb2IksFPm51Cw-0" target="ZAOXv6Gqu5wKepoflgSS-0" edge="1">
          <mxGeometry relative="1" as="geometry" />
        </mxCell>
        <mxCell id="ZAOXv6Gqu5wKepoflgSS-6" style="edgeStyle=none;rounded=0;orthogonalLoop=1;jettySize=auto;html=1;exitX=0.5;exitY=0;exitDx=0;exitDy=0;exitPerimeter=0;dashed=1;startArrow=none;startFill=0;endArrow=none;endFill=0;" parent="zJX7BsomN9FsBj9HWqxF-1" source="ZAOXv6Gqu5wKepoflgSS-4" edge="1">
          <mxGeometry relative="1" as="geometry">
            <mxPoint x="500" y="510" as="targetPoint" />
          </mxGeometry>
        </mxCell>
        <mxCell id="ZAOXv6Gqu5wKepoflgSS-7" style="edgeStyle=none;rounded=0;orthogonalLoop=1;jettySize=auto;html=1;exitX=0.5;exitY=0;exitDx=0;exitDy=0;exitPerimeter=0;dashed=1;startArrow=none;startFill=0;endArrow=none;endFill=0;" parent="zJX7BsomN9FsBj9HWqxF-1" source="ZAOXv6Gqu5wKepoflgSS-4" edge="1">
          <mxGeometry relative="1" as="geometry">
            <mxPoint x="500" y="490" as="targetPoint" />
          </mxGeometry>
        </mxCell>
        <mxCell id="ZAOXv6Gqu5wKepoflgSS-4" value="&lt;b&gt;Conditions:&lt;/b&gt;&amp;nbsp;Đề tài được chuyển tiếp từ tiểu luận chuyên ngành.&lt;br&gt;&lt;br&gt;&lt;b&gt;extension point:&lt;/b&gt; Chuyển tiếp đề tài" style="verticalLabelPosition=middle;verticalAlign=middle;html=1;shape=card;whiteSpace=wrap;size=20;arcSize=12;labelPosition=center;align=left;" parent="zJX7BsomN9FsBj9HWqxF-1" vertex="1">
          <mxGeometry x="440" y="560" width="200" height="80" as="geometry" />
        </mxCell>
      </root>
    </mxGraphModel>
  </diagram>
  <diagram id="BtfHXhDaznPpTXogRlLH" name="Quản lý đăng ký đề tài">
    <mxGraphModel dx="1390" dy="890" grid="1" gridSize="10" guides="1" tooltips="1" connect="1" arrows="1" fold="1" page="1" pageScale="1" pageWidth="827" pageHeight="1169" math="0" shadow="0">
      <root>
        <mxCell id="0ZLb3gAiznchvIHJvV-u-0" />
        <mxCell id="0ZLb3gAiznchvIHJvV-u-1" parent="0ZLb3gAiznchvIHJvV-u-0" />
        <mxCell id="CQnWhM2Fgj8rN2atI9Il-0" value="Quản lý đăng ký đề tài" style="whiteSpace=wrap;html=1;align=center;labelPosition=center;verticalLabelPosition=top;verticalAlign=bottom;fontStyle=1" parent="0ZLb3gAiznchvIHJvV-u-1" vertex="1">
          <mxGeometry x="40" y="40" width="760" height="920" as="geometry" />
        </mxCell>
        <mxCell id="vdVoAAUfCCmun372y2j3-1" style="edgeStyle=none;rounded=0;orthogonalLoop=1;jettySize=auto;html=1;exitX=0.5;exitY=0.5;exitDx=0;exitDy=0;exitPerimeter=0;entryX=0;entryY=0.5;entryDx=0;entryDy=0;startArrow=none;startFill=0;endArrow=none;endFill=0;" parent="0ZLb3gAiznchvIHJvV-u-1" source="0ZLb3gAiznchvIHJvV-u-2" target="AT05NWIV0GKdt8MzgFfV-1" edge="1">
          <mxGeometry relative="1" as="geometry" />
        </mxCell>
        <mxCell id="vdVoAAUfCCmun372y2j3-2" style="edgeStyle=none;rounded=0;orthogonalLoop=1;jettySize=auto;html=1;exitX=0.5;exitY=0.5;exitDx=0;exitDy=0;exitPerimeter=0;entryX=0;entryY=0.5;entryDx=0;entryDy=0;startArrow=none;startFill=0;endArrow=none;endFill=0;" parent="0ZLb3gAiznchvIHJvV-u-1" source="0ZLb3gAiznchvIHJvV-u-2" target="AT05NWIV0GKdt8MzgFfV-0" edge="1">
          <mxGeometry relative="1" as="geometry" />
        </mxCell>
        <mxCell id="MopAIRbQeqH6AyLwqco1-1" style="edgeStyle=none;rounded=0;orthogonalLoop=1;jettySize=auto;html=1;exitX=0.5;exitY=0.5;exitDx=0;exitDy=0;exitPerimeter=0;entryX=0;entryY=0.5;entryDx=0;entryDy=0;startArrow=none;startFill=0;endArrow=none;endFill=0;" parent="0ZLb3gAiznchvIHJvV-u-1" source="0ZLb3gAiznchvIHJvV-u-2" target="vdVoAAUfCCmun372y2j3-0" edge="1">
          <mxGeometry relative="1" as="geometry" />
        </mxCell>
        <mxCell id="MopAIRbQeqH6AyLwqco1-2" style="edgeStyle=none;rounded=0;orthogonalLoop=1;jettySize=auto;html=1;exitX=0.5;exitY=0.5;exitDx=0;exitDy=0;exitPerimeter=0;entryX=0;entryY=0.5;entryDx=0;entryDy=0;startArrow=none;startFill=0;endArrow=none;endFill=0;" parent="0ZLb3gAiznchvIHJvV-u-1" source="0ZLb3gAiznchvIHJvV-u-2" target="wfaVkL-_05uutlR_h7yl-0" edge="1">
          <mxGeometry relative="1" as="geometry" />
        </mxCell>
        <mxCell id="MopAIRbQeqH6AyLwqco1-3" style="edgeStyle=none;rounded=0;orthogonalLoop=1;jettySize=auto;html=1;exitX=0.5;exitY=0.5;exitDx=0;exitDy=0;exitPerimeter=0;entryX=0;entryY=0.5;entryDx=0;entryDy=0;startArrow=none;startFill=0;endArrow=none;endFill=0;" parent="0ZLb3gAiznchvIHJvV-u-1" source="0ZLb3gAiznchvIHJvV-u-2" target="MopAIRbQeqH6AyLwqco1-0" edge="1">
          <mxGeometry relative="1" as="geometry" />
        </mxCell>
        <mxCell id="MopAIRbQeqH6AyLwqco1-4" style="edgeStyle=none;rounded=0;orthogonalLoop=1;jettySize=auto;html=1;exitX=0.5;exitY=0.5;exitDx=0;exitDy=0;exitPerimeter=0;entryX=0;entryY=0.5;entryDx=0;entryDy=0;startArrow=none;startFill=0;endArrow=none;endFill=0;" parent="0ZLb3gAiznchvIHJvV-u-1" source="0ZLb3gAiznchvIHJvV-u-2" target="yHaFM48aGRN_EIauVObz-0" edge="1">
          <mxGeometry relative="1" as="geometry" />
        </mxCell>
        <mxCell id="MopAIRbQeqH6AyLwqco1-5" style="edgeStyle=none;rounded=0;orthogonalLoop=1;jettySize=auto;html=1;exitX=0.5;exitY=0.5;exitDx=0;exitDy=0;exitPerimeter=0;entryX=0;entryY=0.5;entryDx=0;entryDy=0;startArrow=none;startFill=0;endArrow=none;endFill=0;" parent="0ZLb3gAiznchvIHJvV-u-1" source="0ZLb3gAiznchvIHJvV-u-2" target="0ZLb3gAiznchvIHJvV-u-3" edge="1">
          <mxGeometry relative="1" as="geometry" />
        </mxCell>
        <mxCell id="0ZLb3gAiznchvIHJvV-u-2" value="Sinh viên" style="shape=umlActor;verticalLabelPosition=bottom;verticalAlign=top;html=1;outlineConnect=0;align=center;" parent="0ZLb3gAiznchvIHJvV-u-1" vertex="1">
          <mxGeometry x="80" y="440" width="40" height="80" as="geometry" />
        </mxCell>
        <mxCell id="0ZLb3gAiznchvIHJvV-u-3" value="1.3.3. Tạo đăng ký&lt;br&gt;đề tài" style="ellipse;whiteSpace=wrap;html=1;align=center;" parent="0ZLb3gAiznchvIHJvV-u-1" vertex="1">
          <mxGeometry x="360" y="320" width="120" height="80" as="geometry" />
        </mxCell>
        <mxCell id="0ZLb3gAiznchvIHJvV-u-4" value="1.3.8. Chấp nhận&lt;br&gt;yêu cầu đăng ký&lt;br&gt;đề tài" style="ellipse;whiteSpace=wrap;html=1;align=center;" parent="0ZLb3gAiznchvIHJvV-u-1" vertex="1">
          <mxGeometry x="520" y="560" width="120" height="80" as="geometry" />
        </mxCell>
        <mxCell id="YOn4Nvr-XfO1PMozkFLJ-0" value="1.3.9. Từ chối &lt;br&gt;yêu cầu đăng ký&lt;br&gt;đề tài" style="ellipse;whiteSpace=wrap;html=1;align=center;" parent="0ZLb3gAiznchvIHJvV-u-1" vertex="1">
          <mxGeometry x="520" y="680" width="120" height="80" as="geometry" />
        </mxCell>
        <mxCell id="vdVoAAUfCCmun372y2j3-3" style="edgeStyle=none;rounded=0;orthogonalLoop=1;jettySize=auto;html=1;exitX=0.5;exitY=0.5;exitDx=0;exitDy=0;exitPerimeter=0;entryX=1;entryY=1;entryDx=0;entryDy=0;startArrow=none;startFill=0;endArrow=none;endFill=0;" parent="0ZLb3gAiznchvIHJvV-u-1" source="9osRabk5_bo1rZuD72dB-0" target="AT05NWIV0GKdt8MzgFfV-1" edge="1">
          <mxGeometry relative="1" as="geometry" />
        </mxCell>
        <mxCell id="MopAIRbQeqH6AyLwqco1-6" style="edgeStyle=none;rounded=0;orthogonalLoop=1;jettySize=auto;html=1;exitX=0.5;exitY=0.5;exitDx=0;exitDy=0;exitPerimeter=0;entryX=1;entryY=0.5;entryDx=0;entryDy=0;startArrow=none;startFill=0;endArrow=none;endFill=0;" parent="0ZLb3gAiznchvIHJvV-u-1" source="9osRabk5_bo1rZuD72dB-0" target="0ZLb3gAiznchvIHJvV-u-4" edge="1">
          <mxGeometry relative="1" as="geometry" />
        </mxCell>
        <mxCell id="MopAIRbQeqH6AyLwqco1-7" style="edgeStyle=none;rounded=0;orthogonalLoop=1;jettySize=auto;html=1;exitX=0.5;exitY=0.5;exitDx=0;exitDy=0;exitPerimeter=0;entryX=1;entryY=0;entryDx=0;entryDy=0;startArrow=none;startFill=0;endArrow=none;endFill=0;" parent="0ZLb3gAiznchvIHJvV-u-1" source="9osRabk5_bo1rZuD72dB-0" target="YOn4Nvr-XfO1PMozkFLJ-0" edge="1">
          <mxGeometry relative="1" as="geometry" />
        </mxCell>
        <mxCell id="9osRabk5_bo1rZuD72dB-0" value="Giảng viên&lt;br&gt;hướng dẫn" style="shape=umlActor;verticalLabelPosition=bottom;verticalAlign=top;html=1;outlineConnect=0;align=center;" parent="0ZLb3gAiznchvIHJvV-u-1" vertex="1">
          <mxGeometry x="720" y="560" width="40" height="80" as="geometry" />
        </mxCell>
        <mxCell id="yHaFM48aGRN_EIauVObz-0" value="1.3.7. Thu hồi &lt;br&gt;yêu cầu phê duyệt&amp;nbsp;&lt;br&gt;đăng ký đề tài" style="ellipse;whiteSpace=wrap;html=1;align=center;" parent="0ZLb3gAiznchvIHJvV-u-1" vertex="1">
          <mxGeometry x="360" y="840" width="120" height="80" as="geometry" />
        </mxCell>
        <mxCell id="wfaVkL-_05uutlR_h7yl-0" value="1.3.5. Xóa đăng ký&lt;br&gt;đề tài" style="ellipse;whiteSpace=wrap;html=1;align=center;" parent="0ZLb3gAiznchvIHJvV-u-1" vertex="1">
          <mxGeometry x="360" y="560" width="120" height="80" as="geometry" />
        </mxCell>
        <mxCell id="vdVoAAUfCCmun372y2j3-4" style="edgeStyle=none;rounded=0;orthogonalLoop=1;jettySize=auto;html=1;exitX=1;exitY=1;exitDx=0;exitDy=0;entryX=0.5;entryY=0.5;entryDx=0;entryDy=0;entryPerimeter=0;startArrow=none;startFill=0;endArrow=none;endFill=0;" parent="0ZLb3gAiznchvIHJvV-u-1" source="AT05NWIV0GKdt8MzgFfV-0" target="9osRabk5_bo1rZuD72dB-0" edge="1">
          <mxGeometry relative="1" as="geometry" />
        </mxCell>
        <mxCell id="AT05NWIV0GKdt8MzgFfV-0" value="1.3.2. Xem thông tin chi tiết đăng ký đề tài" style="ellipse;whiteSpace=wrap;html=1;align=center;" parent="0ZLb3gAiznchvIHJvV-u-1" vertex="1">
          <mxGeometry x="360" y="200" width="120" height="80" as="geometry" />
        </mxCell>
        <mxCell id="AT05NWIV0GKdt8MzgFfV-1" value="1.3.1. Xem tất cả đăng ký đề tài" style="ellipse;whiteSpace=wrap;html=1;align=center;" parent="0ZLb3gAiznchvIHJvV-u-1" vertex="1">
          <mxGeometry x="360" y="80" width="120" height="80" as="geometry" />
        </mxCell>
        <mxCell id="vdVoAAUfCCmun372y2j3-0" value="1.3.4. Sửa đăng ký đề tài" style="ellipse;whiteSpace=wrap;html=1;align=center;" parent="0ZLb3gAiznchvIHJvV-u-1" vertex="1">
          <mxGeometry x="360" y="440" width="120" height="80" as="geometry" />
        </mxCell>
        <mxCell id="0UWvVFa2dkmg9GdU7Z02-0" value="&amp;lt;&amp;lt; include &amp;gt;&amp;gt;" style="edgeStyle=orthogonalEdgeStyle;rounded=0;orthogonalLoop=1;jettySize=auto;html=1;exitX=0.5;exitY=1;exitDx=0;exitDy=0;entryX=0.5;entryY=0;entryDx=0;entryDy=0;dashed=1;startArrow=none;startFill=0;endArrow=classic;endFill=1;" parent="0ZLb3gAiznchvIHJvV-u-1" source="MopAIRbQeqH6AyLwqco1-0" target="yHaFM48aGRN_EIauVObz-0" edge="1">
          <mxGeometry relative="1" as="geometry" />
        </mxCell>
        <mxCell id="MopAIRbQeqH6AyLwqco1-0" value="1.3.6. Gửi yêu cầu phê duyệt đăng ký&lt;br&gt;đề tài" style="ellipse;whiteSpace=wrap;html=1;align=center;" parent="0ZLb3gAiznchvIHJvV-u-1" vertex="1">
          <mxGeometry x="360" y="680" width="120" height="80" as="geometry" />
        </mxCell>
        <mxCell id="YJdEY1oAYJhVXNcyIl46-1" style="edgeStyle=none;rounded=0;orthogonalLoop=1;jettySize=auto;html=1;exitX=0.5;exitY=0.5;exitDx=0;exitDy=0;exitPerimeter=0;entryX=1;entryY=0.5;entryDx=0;entryDy=0;startArrow=none;startFill=0;endArrow=none;endFill=0;" parent="0ZLb3gAiznchvIHJvV-u-1" source="YJdEY1oAYJhVXNcyIl46-0" target="AT05NWIV0GKdt8MzgFfV-1" edge="1">
          <mxGeometry relative="1" as="geometry" />
        </mxCell>
        <mxCell id="YJdEY1oAYJhVXNcyIl46-2" style="edgeStyle=none;rounded=0;orthogonalLoop=1;jettySize=auto;html=1;exitX=0.5;exitY=0.5;exitDx=0;exitDy=0;exitPerimeter=0;entryX=1;entryY=0;entryDx=0;entryDy=0;startArrow=none;startFill=0;endArrow=none;endFill=0;" parent="0ZLb3gAiznchvIHJvV-u-1" source="YJdEY1oAYJhVXNcyIl46-0" target="AT05NWIV0GKdt8MzgFfV-0" edge="1">
          <mxGeometry relative="1" as="geometry" />
        </mxCell>
        <mxCell id="YJdEY1oAYJhVXNcyIl46-0" value="Trưởng&lt;br&gt;ngành" style="shape=umlActor;verticalLabelPosition=bottom;verticalAlign=top;html=1;outlineConnect=0;align=center;" parent="0ZLb3gAiznchvIHJvV-u-1" vertex="1">
          <mxGeometry x="720" y="80" width="40" height="80" as="geometry" />
        </mxCell>
        <mxCell id="QyaoqYs3OfJ-Vgz0XnNB-0" value="1.3.10. Trả lại&lt;br&gt;yêu cầu đăng ký &lt;br&gt;đề tài" style="ellipse;whiteSpace=wrap;html=1;align=center;" parent="0ZLb3gAiznchvIHJvV-u-1" vertex="1">
          <mxGeometry x="520" y="800" width="120" height="80" as="geometry" />
        </mxCell>
      </root>
    </mxGraphModel>
  </diagram>
  <diagram id="2THE8mXfMffBGKKK_MHZ" name="Quản lý báo cáo tiến độ">
    <mxGraphModel dx="1390" dy="890" grid="1" gridSize="10" guides="1" tooltips="1" connect="1" arrows="1" fold="1" page="1" pageScale="1" pageWidth="827" pageHeight="1169" math="0" shadow="0">
      <root>
        <mxCell id="eW-Itgsju2nnqSjzE58P-0" />
        <mxCell id="eW-Itgsju2nnqSjzE58P-1" parent="eW-Itgsju2nnqSjzE58P-0" />
        <mxCell id="SR_-x-92iRac0agpuIHS-0" value="Quản lý báo cáo tiến độ" style="whiteSpace=wrap;html=1;align=center;labelPosition=center;verticalLabelPosition=top;verticalAlign=bottom;fontStyle=1" vertex="1" parent="eW-Itgsju2nnqSjzE58P-1">
          <mxGeometry x="40" y="200" width="760" height="640" as="geometry" />
        </mxCell>
        <mxCell id="5h0Peo6gFjsDm62UjvyL-5" style="edgeStyle=none;rounded=0;orthogonalLoop=1;jettySize=auto;html=1;exitX=0.5;exitY=0.5;exitDx=0;exitDy=0;exitPerimeter=0;entryX=0;entryY=0.5;entryDx=0;entryDy=0;endArrow=none;endFill=0;" parent="eW-Itgsju2nnqSjzE58P-1" source="WTsK5wRQJRNwDvLduZln-0" target="5o9VHnCO1SVTFbGKW1ny-0" edge="1">
          <mxGeometry relative="1" as="geometry" />
        </mxCell>
        <mxCell id="5h0Peo6gFjsDm62UjvyL-6" style="edgeStyle=none;rounded=0;orthogonalLoop=1;jettySize=auto;html=1;exitX=0.5;exitY=0.5;exitDx=0;exitDy=0;exitPerimeter=0;entryX=0;entryY=0.5;entryDx=0;entryDy=0;endArrow=none;endFill=0;" parent="eW-Itgsju2nnqSjzE58P-1" source="WTsK5wRQJRNwDvLduZln-0" target="5o9VHnCO1SVTFbGKW1ny-1" edge="1">
          <mxGeometry relative="1" as="geometry" />
        </mxCell>
        <mxCell id="5h0Peo6gFjsDm62UjvyL-7" style="edgeStyle=none;rounded=0;orthogonalLoop=1;jettySize=auto;html=1;exitX=0.5;exitY=0.5;exitDx=0;exitDy=0;exitPerimeter=0;entryX=0;entryY=0.5;entryDx=0;entryDy=0;endArrow=none;endFill=0;" parent="eW-Itgsju2nnqSjzE58P-1" source="WTsK5wRQJRNwDvLduZln-0" target="5h0Peo6gFjsDm62UjvyL-0" edge="1">
          <mxGeometry relative="1" as="geometry" />
        </mxCell>
        <mxCell id="5h0Peo6gFjsDm62UjvyL-8" style="edgeStyle=none;rounded=0;orthogonalLoop=1;jettySize=auto;html=1;exitX=0.5;exitY=0.5;exitDx=0;exitDy=0;exitPerimeter=0;entryX=0;entryY=0.5;entryDx=0;entryDy=0;endArrow=none;endFill=0;" parent="eW-Itgsju2nnqSjzE58P-1" source="WTsK5wRQJRNwDvLduZln-0" target="5h0Peo6gFjsDm62UjvyL-1" edge="1">
          <mxGeometry relative="1" as="geometry" />
        </mxCell>
        <mxCell id="WTsK5wRQJRNwDvLduZln-0" value="Sinh viên" style="shape=umlActor;verticalLabelPosition=bottom;verticalAlign=top;html=1;outlineConnect=0;" parent="eW-Itgsju2nnqSjzE58P-1" vertex="1">
          <mxGeometry x="80" y="480" width="40" height="80" as="geometry" />
        </mxCell>
        <mxCell id="WTsK5wRQJRNwDvLduZln-1" value="Trưởng&lt;br&gt;ngành" style="shape=umlActor;verticalLabelPosition=bottom;verticalAlign=top;html=1;outlineConnect=0;" parent="eW-Itgsju2nnqSjzE58P-1" vertex="1">
          <mxGeometry x="720" y="240" width="40" height="80" as="geometry" />
        </mxCell>
        <mxCell id="5h0Peo6gFjsDm62UjvyL-10" style="edgeStyle=none;rounded=0;orthogonalLoop=1;jettySize=auto;html=1;exitX=0.5;exitY=0.5;exitDx=0;exitDy=0;exitPerimeter=0;entryX=1;entryY=1;entryDx=0;entryDy=0;endArrow=none;endFill=0;" parent="eW-Itgsju2nnqSjzE58P-1" source="0zrp5Jh_Dr5whQXCnOtI-1" target="dXTfNm3ZXeWNY4xpHl7p-15" edge="1">
          <mxGeometry relative="1" as="geometry" />
        </mxCell>
        <mxCell id="0zrp5Jh_Dr5whQXCnOtI-1" value="Giảng viên&lt;br&gt;hướng dẫn" style="shape=umlActor;verticalLabelPosition=bottom;verticalAlign=top;html=1;outlineConnect=0;" parent="eW-Itgsju2nnqSjzE58P-1" vertex="1">
          <mxGeometry x="720" y="440" width="40" height="80" as="geometry" />
        </mxCell>
        <mxCell id="5h0Peo6gFjsDm62UjvyL-4" style="edgeStyle=none;rounded=0;orthogonalLoop=1;jettySize=auto;html=1;exitX=0;exitY=0.5;exitDx=0;exitDy=0;entryX=0.5;entryY=0.5;entryDx=0;entryDy=0;entryPerimeter=0;endArrow=none;endFill=0;" parent="eW-Itgsju2nnqSjzE58P-1" source="dXTfNm3ZXeWNY4xpHl7p-15" target="WTsK5wRQJRNwDvLduZln-0" edge="1">
          <mxGeometry relative="1" as="geometry" />
        </mxCell>
        <mxCell id="5h0Peo6gFjsDm62UjvyL-9" style="edgeStyle=none;rounded=0;orthogonalLoop=1;jettySize=auto;html=1;exitX=1;exitY=0.5;exitDx=0;exitDy=0;entryX=0.5;entryY=0.5;entryDx=0;entryDy=0;entryPerimeter=0;endArrow=none;endFill=0;" parent="eW-Itgsju2nnqSjzE58P-1" source="dXTfNm3ZXeWNY4xpHl7p-15" target="WTsK5wRQJRNwDvLduZln-1" edge="1">
          <mxGeometry relative="1" as="geometry" />
        </mxCell>
        <mxCell id="dXTfNm3ZXeWNY4xpHl7p-15" value="4.1. Xem tất cả báo cáo tiến độ" style="ellipse;whiteSpace=wrap;html=1;" parent="eW-Itgsju2nnqSjzE58P-1" vertex="1">
          <mxGeometry x="360" y="240" width="120" height="80" as="geometry" />
        </mxCell>
        <mxCell id="5h0Peo6gFjsDm62UjvyL-11" style="edgeStyle=none;rounded=0;orthogonalLoop=1;jettySize=auto;html=1;exitX=1;exitY=0.5;exitDx=0;exitDy=0;entryX=0.5;entryY=0.5;entryDx=0;entryDy=0;entryPerimeter=0;endArrow=none;endFill=0;" parent="eW-Itgsju2nnqSjzE58P-1" source="5o9VHnCO1SVTFbGKW1ny-0" target="0zrp5Jh_Dr5whQXCnOtI-1" edge="1">
          <mxGeometry relative="1" as="geometry" />
        </mxCell>
        <mxCell id="5h0Peo6gFjsDm62UjvyL-12" style="edgeStyle=none;rounded=0;orthogonalLoop=1;jettySize=auto;html=1;exitX=1;exitY=0;exitDx=0;exitDy=0;entryX=0.5;entryY=0.5;entryDx=0;entryDy=0;entryPerimeter=0;endArrow=none;endFill=0;" parent="eW-Itgsju2nnqSjzE58P-1" source="5o9VHnCO1SVTFbGKW1ny-0" target="WTsK5wRQJRNwDvLduZln-1" edge="1">
          <mxGeometry relative="1" as="geometry" />
        </mxCell>
        <mxCell id="5o9VHnCO1SVTFbGKW1ny-0" value="4.2. Xem thông tin&lt;br&gt;chi tiết báo cáo &lt;br&gt;tiến độ" style="ellipse;whiteSpace=wrap;html=1;" parent="eW-Itgsju2nnqSjzE58P-1" vertex="1">
          <mxGeometry x="360" y="360" width="120" height="80" as="geometry" />
        </mxCell>
        <mxCell id="5o9VHnCO1SVTFbGKW1ny-1" value="4.3. Tạo báo cáo&lt;br&gt;tiến độ" style="ellipse;whiteSpace=wrap;html=1;" parent="eW-Itgsju2nnqSjzE58P-1" vertex="1">
          <mxGeometry x="360" y="480" width="120" height="80" as="geometry" />
        </mxCell>
        <mxCell id="5h0Peo6gFjsDm62UjvyL-0" value="4.4. Sửa báo cáo&lt;br&gt;tiến độ" style="ellipse;whiteSpace=wrap;html=1;" parent="eW-Itgsju2nnqSjzE58P-1" vertex="1">
          <mxGeometry x="360" y="600" width="120" height="80" as="geometry" />
        </mxCell>
        <mxCell id="5h0Peo6gFjsDm62UjvyL-1" value="4.5. Xóa báo cáo&lt;br&gt;tiến độ" style="ellipse;whiteSpace=wrap;html=1;" parent="eW-Itgsju2nnqSjzE58P-1" vertex="1">
          <mxGeometry x="360" y="720" width="120" height="80" as="geometry" />
        </mxCell>
      </root>
    </mxGraphModel>
  </diagram>
  <diagram id="1Og2VHi6Q6YGARP5NEdc" name="Quản lý nhận xét báo cáo tiến độ">
    <mxGraphModel dx="1390" dy="841" grid="1" gridSize="10" guides="1" tooltips="1" connect="1" arrows="1" fold="1" page="1" pageScale="1" pageWidth="827" pageHeight="1169" math="0" shadow="0">
      <root>
        <mxCell id="Kgds-SAC3pQRxBhbiTS7-0" />
        <mxCell id="Kgds-SAC3pQRxBhbiTS7-1" parent="Kgds-SAC3pQRxBhbiTS7-0" />
        <mxCell id="GR0XCsAUiOpYaIaK52AU-0" value="Quản lý nhận xét báo cáo tiến độ" style="whiteSpace=wrap;html=1;align=center;labelPosition=center;verticalLabelPosition=top;verticalAlign=bottom;fontStyle=1" vertex="1" parent="Kgds-SAC3pQRxBhbiTS7-1">
          <mxGeometry x="40" y="320" width="760" height="520" as="geometry" />
        </mxCell>
        <mxCell id="ScYmP4MjTPI9xbJkr5RU-18" style="edgeStyle=none;rounded=0;orthogonalLoop=1;jettySize=auto;html=1;exitX=0.5;exitY=0.5;exitDx=0;exitDy=0;exitPerimeter=0;entryX=0;entryY=0.5;entryDx=0;entryDy=0;endArrow=none;endFill=0;" parent="Kgds-SAC3pQRxBhbiTS7-1" source="ScYmP4MjTPI9xbJkr5RU-21" target="ScYmP4MjTPI9xbJkr5RU-31" edge="1">
          <mxGeometry relative="1" as="geometry" />
        </mxCell>
        <mxCell id="ScYmP4MjTPI9xbJkr5RU-19" style="edgeStyle=none;rounded=0;orthogonalLoop=1;jettySize=auto;html=1;exitX=0.5;exitY=0.5;exitDx=0;exitDy=0;exitPerimeter=0;entryX=0;entryY=0.5;entryDx=0;entryDy=0;endArrow=none;endFill=0;" parent="Kgds-SAC3pQRxBhbiTS7-1" source="ScYmP4MjTPI9xbJkr5RU-21" target="ScYmP4MjTPI9xbJkr5RU-32" edge="1">
          <mxGeometry relative="1" as="geometry" />
        </mxCell>
        <mxCell id="ScYmP4MjTPI9xbJkr5RU-20" style="edgeStyle=none;rounded=0;orthogonalLoop=1;jettySize=auto;html=1;exitX=0.5;exitY=0.5;exitDx=0;exitDy=0;exitPerimeter=0;entryX=0;entryY=0.5;entryDx=0;entryDy=0;endArrow=none;endFill=0;" parent="Kgds-SAC3pQRxBhbiTS7-1" source="ScYmP4MjTPI9xbJkr5RU-21" target="ScYmP4MjTPI9xbJkr5RU-33" edge="1">
          <mxGeometry relative="1" as="geometry" />
        </mxCell>
        <mxCell id="ScYmP4MjTPI9xbJkr5RU-21" value="Trưởng&lt;br&gt;ngành" style="shape=umlActor;verticalLabelPosition=bottom;verticalAlign=top;html=1;outlineConnect=0;" parent="Kgds-SAC3pQRxBhbiTS7-1" vertex="1">
          <mxGeometry x="80" y="540" width="40" height="80" as="geometry" />
        </mxCell>
        <mxCell id="ScYmP4MjTPI9xbJkr5RU-22" value="Sinh viên" style="shape=umlActor;verticalLabelPosition=bottom;verticalAlign=top;html=1;outlineConnect=0;" parent="Kgds-SAC3pQRxBhbiTS7-1" vertex="1">
          <mxGeometry x="720" y="360" width="40" height="80" as="geometry" />
        </mxCell>
        <mxCell id="ScYmP4MjTPI9xbJkr5RU-23" style="edgeStyle=none;rounded=0;orthogonalLoop=1;jettySize=auto;html=1;exitX=0.5;exitY=0.5;exitDx=0;exitDy=0;exitPerimeter=0;entryX=1;entryY=1;entryDx=0;entryDy=0;endArrow=none;endFill=0;" parent="Kgds-SAC3pQRxBhbiTS7-1" source="ScYmP4MjTPI9xbJkr5RU-24" target="ScYmP4MjTPI9xbJkr5RU-27" edge="1">
          <mxGeometry relative="1" as="geometry" />
        </mxCell>
        <mxCell id="2seokKL0bOjzwiLGC2m9-0" style="edgeStyle=none;rounded=0;orthogonalLoop=1;jettySize=auto;html=1;exitX=0.5;exitY=0.5;exitDx=0;exitDy=0;exitPerimeter=0;entryX=1;entryY=0.5;entryDx=0;entryDy=0;endArrow=none;endFill=0;" parent="Kgds-SAC3pQRxBhbiTS7-1" source="ScYmP4MjTPI9xbJkr5RU-24" target="ScYmP4MjTPI9xbJkr5RU-31" edge="1">
          <mxGeometry relative="1" as="geometry" />
        </mxCell>
        <mxCell id="2seokKL0bOjzwiLGC2m9-1" style="edgeStyle=none;rounded=0;orthogonalLoop=1;jettySize=auto;html=1;exitX=0.5;exitY=0.5;exitDx=0;exitDy=0;exitPerimeter=0;entryX=1;entryY=0.5;entryDx=0;entryDy=0;endArrow=none;endFill=0;" parent="Kgds-SAC3pQRxBhbiTS7-1" source="ScYmP4MjTPI9xbJkr5RU-24" target="ScYmP4MjTPI9xbJkr5RU-32" edge="1">
          <mxGeometry relative="1" as="geometry" />
        </mxCell>
        <mxCell id="2seokKL0bOjzwiLGC2m9-2" style="edgeStyle=none;rounded=0;orthogonalLoop=1;jettySize=auto;html=1;exitX=0.5;exitY=0.5;exitDx=0;exitDy=0;exitPerimeter=0;entryX=1;entryY=0.5;entryDx=0;entryDy=0;endArrow=none;endFill=0;" parent="Kgds-SAC3pQRxBhbiTS7-1" source="ScYmP4MjTPI9xbJkr5RU-24" target="ScYmP4MjTPI9xbJkr5RU-33" edge="1">
          <mxGeometry relative="1" as="geometry" />
        </mxCell>
        <mxCell id="ScYmP4MjTPI9xbJkr5RU-24" value="Giảng viên&lt;br&gt;hướng dẫn" style="shape=umlActor;verticalLabelPosition=bottom;verticalAlign=top;html=1;outlineConnect=0;" parent="Kgds-SAC3pQRxBhbiTS7-1" vertex="1">
          <mxGeometry x="720" y="540" width="40" height="80" as="geometry" />
        </mxCell>
        <mxCell id="ScYmP4MjTPI9xbJkr5RU-25" style="edgeStyle=none;rounded=0;orthogonalLoop=1;jettySize=auto;html=1;exitX=0;exitY=0.5;exitDx=0;exitDy=0;entryX=0.5;entryY=0.5;entryDx=0;entryDy=0;entryPerimeter=0;endArrow=none;endFill=0;" parent="Kgds-SAC3pQRxBhbiTS7-1" source="ScYmP4MjTPI9xbJkr5RU-27" target="ScYmP4MjTPI9xbJkr5RU-21" edge="1">
          <mxGeometry relative="1" as="geometry" />
        </mxCell>
        <mxCell id="ScYmP4MjTPI9xbJkr5RU-26" style="edgeStyle=none;rounded=0;orthogonalLoop=1;jettySize=auto;html=1;exitX=1;exitY=0.5;exitDx=0;exitDy=0;entryX=0.5;entryY=0.5;entryDx=0;entryDy=0;entryPerimeter=0;endArrow=none;endFill=0;" parent="Kgds-SAC3pQRxBhbiTS7-1" source="ScYmP4MjTPI9xbJkr5RU-27" target="ScYmP4MjTPI9xbJkr5RU-22" edge="1">
          <mxGeometry relative="1" as="geometry" />
        </mxCell>
        <mxCell id="ScYmP4MjTPI9xbJkr5RU-27" value="5.1. Xem nhận xét báo cáo tiến độ" style="ellipse;whiteSpace=wrap;html=1;" parent="Kgds-SAC3pQRxBhbiTS7-1" vertex="1">
          <mxGeometry x="360" y="360" width="120" height="80" as="geometry" />
        </mxCell>
        <mxCell id="ScYmP4MjTPI9xbJkr5RU-31" value="5.2. Tạo nhận xét&lt;br&gt;báo cáo tiến độ" style="ellipse;whiteSpace=wrap;html=1;" parent="Kgds-SAC3pQRxBhbiTS7-1" vertex="1">
          <mxGeometry x="360" y="480" width="120" height="80" as="geometry" />
        </mxCell>
        <mxCell id="ScYmP4MjTPI9xbJkr5RU-32" value="5.3. Sửa nhận xét &lt;br&gt;báo cáo tiến độ" style="ellipse;whiteSpace=wrap;html=1;" parent="Kgds-SAC3pQRxBhbiTS7-1" vertex="1">
          <mxGeometry x="360" y="600" width="120" height="80" as="geometry" />
        </mxCell>
        <mxCell id="ScYmP4MjTPI9xbJkr5RU-33" value="5.4. Xóa nhận xét&amp;nbsp;&lt;br&gt;báo cáo tiến độ" style="ellipse;whiteSpace=wrap;html=1;" parent="Kgds-SAC3pQRxBhbiTS7-1" vertex="1">
          <mxGeometry x="360" y="720" width="120" height="80" as="geometry" />
        </mxCell>
      </root>
    </mxGraphModel>
  </diagram>
  <diagram id="3phcgzRmJWwZlPurHAd7" name="Quản lý lịch báo cáo tiến độ">
    <mxGraphModel dx="1390" dy="841" grid="1" gridSize="10" guides="1" tooltips="1" connect="1" arrows="1" fold="1" page="1" pageScale="1" pageWidth="827" pageHeight="1169" math="0" shadow="0">
      <root>
        <mxCell id="7AEc97mhs4ZNhoMu7WVm-0" />
        <mxCell id="7AEc97mhs4ZNhoMu7WVm-1" parent="7AEc97mhs4ZNhoMu7WVm-0" />
        <mxCell id="1TUkebirGdR3uQXQlT0D-0" value="Quản lý lịch nhận xét báo cáo tiến độ" style="whiteSpace=wrap;html=1;align=center;labelPosition=center;verticalLabelPosition=top;verticalAlign=bottom;fontStyle=1" vertex="1" parent="7AEc97mhs4ZNhoMu7WVm-1">
          <mxGeometry x="40" y="200" width="760" height="640" as="geometry" />
        </mxCell>
        <mxCell id="etyGsmdFHb5Fxk1OPto--0" style="edgeStyle=none;rounded=0;orthogonalLoop=1;jettySize=auto;html=1;exitX=0.5;exitY=0.5;exitDx=0;exitDy=0;exitPerimeter=0;entryX=0;entryY=0.5;entryDx=0;entryDy=0;endArrow=none;endFill=0;" parent="7AEc97mhs4ZNhoMu7WVm-1" source="etyGsmdFHb5Fxk1OPto--4" target="etyGsmdFHb5Fxk1OPto--16" edge="1">
          <mxGeometry relative="1" as="geometry" />
        </mxCell>
        <mxCell id="etyGsmdFHb5Fxk1OPto--1" style="edgeStyle=none;rounded=0;orthogonalLoop=1;jettySize=auto;html=1;exitX=0.5;exitY=0.5;exitDx=0;exitDy=0;exitPerimeter=0;entryX=0;entryY=0.5;entryDx=0;entryDy=0;endArrow=none;endFill=0;" parent="7AEc97mhs4ZNhoMu7WVm-1" source="etyGsmdFHb5Fxk1OPto--4" target="etyGsmdFHb5Fxk1OPto--17" edge="1">
          <mxGeometry relative="1" as="geometry" />
        </mxCell>
        <mxCell id="etyGsmdFHb5Fxk1OPto--2" style="edgeStyle=none;rounded=0;orthogonalLoop=1;jettySize=auto;html=1;exitX=0.5;exitY=0.5;exitDx=0;exitDy=0;exitPerimeter=0;entryX=0;entryY=0.5;entryDx=0;entryDy=0;endArrow=none;endFill=0;" parent="7AEc97mhs4ZNhoMu7WVm-1" source="etyGsmdFHb5Fxk1OPto--4" target="etyGsmdFHb5Fxk1OPto--18" edge="1">
          <mxGeometry relative="1" as="geometry" />
        </mxCell>
        <mxCell id="etyGsmdFHb5Fxk1OPto--3" style="edgeStyle=none;rounded=0;orthogonalLoop=1;jettySize=auto;html=1;exitX=0.5;exitY=0.5;exitDx=0;exitDy=0;exitPerimeter=0;entryX=0;entryY=0.5;entryDx=0;entryDy=0;endArrow=none;endFill=0;" parent="7AEc97mhs4ZNhoMu7WVm-1" source="etyGsmdFHb5Fxk1OPto--4" target="etyGsmdFHb5Fxk1OPto--19" edge="1">
          <mxGeometry relative="1" as="geometry" />
        </mxCell>
        <mxCell id="etyGsmdFHb5Fxk1OPto--4" value="Trưởng&lt;br&gt;ngành" style="shape=umlActor;verticalLabelPosition=bottom;verticalAlign=top;html=1;outlineConnect=0;" parent="7AEc97mhs4ZNhoMu7WVm-1" vertex="1">
          <mxGeometry x="80" y="480" width="40" height="80" as="geometry" />
        </mxCell>
        <mxCell id="etyGsmdFHb5Fxk1OPto--5" value="Sinh viên" style="shape=umlActor;verticalLabelPosition=bottom;verticalAlign=top;html=1;outlineConnect=0;" parent="7AEc97mhs4ZNhoMu7WVm-1" vertex="1">
          <mxGeometry x="720" y="240" width="40" height="80" as="geometry" />
        </mxCell>
        <mxCell id="etyGsmdFHb5Fxk1OPto--6" style="edgeStyle=none;rounded=0;orthogonalLoop=1;jettySize=auto;html=1;exitX=0.5;exitY=0.5;exitDx=0;exitDy=0;exitPerimeter=0;entryX=1;entryY=1;entryDx=0;entryDy=0;endArrow=none;endFill=0;" parent="7AEc97mhs4ZNhoMu7WVm-1" source="etyGsmdFHb5Fxk1OPto--10" target="etyGsmdFHb5Fxk1OPto--13" edge="1">
          <mxGeometry relative="1" as="geometry" />
        </mxCell>
        <mxCell id="etyGsmdFHb5Fxk1OPto--10" value="Giảng viên&lt;br&gt;hướng dẫn" style="shape=umlActor;verticalLabelPosition=bottom;verticalAlign=top;html=1;outlineConnect=0;" parent="7AEc97mhs4ZNhoMu7WVm-1" vertex="1">
          <mxGeometry x="720" y="480" width="40" height="80" as="geometry" />
        </mxCell>
        <mxCell id="etyGsmdFHb5Fxk1OPto--11" style="edgeStyle=none;rounded=0;orthogonalLoop=1;jettySize=auto;html=1;exitX=0;exitY=0.5;exitDx=0;exitDy=0;entryX=0.5;entryY=0.5;entryDx=0;entryDy=0;entryPerimeter=0;endArrow=none;endFill=0;" parent="7AEc97mhs4ZNhoMu7WVm-1" source="etyGsmdFHb5Fxk1OPto--13" target="etyGsmdFHb5Fxk1OPto--4" edge="1">
          <mxGeometry relative="1" as="geometry" />
        </mxCell>
        <mxCell id="etyGsmdFHb5Fxk1OPto--12" style="edgeStyle=none;rounded=0;orthogonalLoop=1;jettySize=auto;html=1;exitX=1;exitY=0.5;exitDx=0;exitDy=0;entryX=0.5;entryY=0.5;entryDx=0;entryDy=0;entryPerimeter=0;endArrow=none;endFill=0;" parent="7AEc97mhs4ZNhoMu7WVm-1" source="etyGsmdFHb5Fxk1OPto--13" target="etyGsmdFHb5Fxk1OPto--5" edge="1">
          <mxGeometry relative="1" as="geometry" />
        </mxCell>
        <mxCell id="etyGsmdFHb5Fxk1OPto--13" value="6.1. Xem tất cả lịch&lt;br&gt;báo cáo tiến độ" style="ellipse;whiteSpace=wrap;html=1;" parent="7AEc97mhs4ZNhoMu7WVm-1" vertex="1">
          <mxGeometry x="360" y="240" width="120" height="80" as="geometry" />
        </mxCell>
        <mxCell id="etyGsmdFHb5Fxk1OPto--14" style="edgeStyle=none;rounded=0;orthogonalLoop=1;jettySize=auto;html=1;exitX=1;exitY=0.5;exitDx=0;exitDy=0;entryX=0.5;entryY=0.5;entryDx=0;entryDy=0;entryPerimeter=0;endArrow=none;endFill=0;" parent="7AEc97mhs4ZNhoMu7WVm-1" source="etyGsmdFHb5Fxk1OPto--16" target="etyGsmdFHb5Fxk1OPto--10" edge="1">
          <mxGeometry relative="1" as="geometry" />
        </mxCell>
        <mxCell id="etyGsmdFHb5Fxk1OPto--15" style="edgeStyle=none;rounded=0;orthogonalLoop=1;jettySize=auto;html=1;exitX=1;exitY=0;exitDx=0;exitDy=0;entryX=0.5;entryY=0.5;entryDx=0;entryDy=0;entryPerimeter=0;endArrow=none;endFill=0;" parent="7AEc97mhs4ZNhoMu7WVm-1" source="etyGsmdFHb5Fxk1OPto--16" target="etyGsmdFHb5Fxk1OPto--5" edge="1">
          <mxGeometry relative="1" as="geometry" />
        </mxCell>
        <mxCell id="etyGsmdFHb5Fxk1OPto--16" value="6.2. Xem thông tin&lt;br&gt;chi tiết lịch&lt;br&gt;báo cáo tiến độ" style="ellipse;whiteSpace=wrap;html=1;" parent="7AEc97mhs4ZNhoMu7WVm-1" vertex="1">
          <mxGeometry x="360" y="360" width="120" height="80" as="geometry" />
        </mxCell>
        <mxCell id="etyGsmdFHb5Fxk1OPto--17" value="6.3. Tạo lịch&lt;br&gt;báo cáo tiến độ" style="ellipse;whiteSpace=wrap;html=1;" parent="7AEc97mhs4ZNhoMu7WVm-1" vertex="1">
          <mxGeometry x="360" y="480" width="120" height="80" as="geometry" />
        </mxCell>
        <mxCell id="etyGsmdFHb5Fxk1OPto--18" value="6.4. Sửa lịch&amp;nbsp;&lt;br&gt;báo cáo tiến độ" style="ellipse;whiteSpace=wrap;html=1;" parent="7AEc97mhs4ZNhoMu7WVm-1" vertex="1">
          <mxGeometry x="360" y="600" width="120" height="80" as="geometry" />
        </mxCell>
        <mxCell id="etyGsmdFHb5Fxk1OPto--19" value="6.5. Xóa lịch&amp;nbsp;&lt;br&gt;báo cáo tiến độ" style="ellipse;whiteSpace=wrap;html=1;" parent="7AEc97mhs4ZNhoMu7WVm-1" vertex="1">
          <mxGeometry x="360" y="720" width="120" height="80" as="geometry" />
        </mxCell>
      </root>
    </mxGraphModel>
  </diagram>
  <diagram id="xQELtm2X1uHIdnG-k6o5" name="Page-7">
    <mxGraphModel dx="1390" dy="890" grid="1" gridSize="10" guides="1" tooltips="1" connect="1" arrows="1" fold="1" page="1" pageScale="1" pageWidth="827" pageHeight="1169" math="0" shadow="0">
      <root>
        <mxCell id="DzQ5BKv7NTYL4ZhiJDXd-0" />
        <mxCell id="DzQ5BKv7NTYL4ZhiJDXd-1" parent="DzQ5BKv7NTYL4ZhiJDXd-0" />
      </root>
    </mxGraphModel>
  </diagram>
</mxfile>
